<svg width="99" height="29" viewBox="0 0 99 29" fill="none" xmlns="http://www.w3.org/2000/svg">
<g id="logo">
<g id="Group 1">
<path id="Vector" d="M18.7079 5.85156C16.2154 5.85156 14.2362 7.38868 13.2535 9.00307C12.5625 6.91087 10.9647 5.85156 8.49416 5.85156C6.35115 5.85156 4.49373 7.1325 3.47316 8.59642V6.22364H0V22.5851H3.56503V15.0885C3.56503 14.4603 3.585 13.7344 3.73879 13.1122C4.20614 11.3067 5.57223 9.19826 7.88301 9.19826C9.87424 9.19826 10.2737 10.5951 10.2737 12.8459V22.583H13.8387V15.0865C13.8387 14.2488 13.9046 13.5778 14.0424 12.9841C14.5258 11.0993 15.9657 9.19623 18.0948 9.19623C19.8603 9.19623 20.5474 10.2189 20.5474 12.8438V22.581H24.1124V12.1891C24.1124 7.97832 22.2929 5.84546 18.7059 5.84546L18.7079 5.85156Z" fill="white"/>
<path id="Vector_2" d="M34.9153 5.85164C30.1839 5.85164 26.8785 9.36914 26.8785 14.4055C26.8785 19.4418 30.4516 22.9593 35.3727 22.9593C39.1494 22.9593 41.4762 20.7288 41.5741 20.6332L41.7418 20.4686L40.2179 17.7135L39.9403 17.9799C39.9224 17.9982 38.0709 19.7346 35.5584 19.7346C33.4094 19.7346 30.855 18.5248 30.5574 15.1456H41.7918L41.8197 14.8711C41.8237 14.8345 41.9136 13.948 41.9136 13.5332C41.9136 8.93809 39.1015 5.84961 34.9173 5.84961L34.9153 5.85164ZM34.8534 8.85879C36.7967 8.85879 38.0829 10.154 38.2647 12.2645H30.6912C31.1765 10.154 32.7424 8.85879 34.8514 8.85879H34.8534Z" fill="white"/>
<path id="Vector_3" d="M51.8857 5.85164C47.1543 5.85164 43.8489 9.36914 43.8489 14.4055C43.8489 19.4418 47.4219 22.9593 52.343 22.9593C56.1198 22.9593 58.4465 20.7288 58.5444 20.6332L58.7122 20.4686L57.1883 17.7135L56.9107 17.9799C56.8927 17.9982 55.0413 19.7346 52.5288 19.7346C50.3798 19.7346 47.8253 18.5248 47.5277 15.1456H58.7621L58.7901 14.8711C58.794 14.8345 58.8839 13.948 58.8839 13.5332C58.8839 8.93809 56.0718 5.84961 51.8877 5.84961L51.8857 5.85164ZM51.8238 8.85879C53.7671 8.85879 55.0533 10.154 55.235 12.2645H47.6636C48.1489 10.154 49.7147 8.85879 51.8238 8.85879Z" fill="white"/>
<path id="Vector_4" d="M69.7408 19.3685C69.7408 19.3685 69.4871 19.4234 69.1017 19.4234C67.7316 19.4234 66.0978 18.8602 66.0978 16.1804V9.48085H69.8286V6.4432H66.0978V1.89893H62.6247V6.4432H60.5156V9.48085H62.5348V16.5219C62.5348 22.1072 66.8927 22.7111 68.7661 22.7111C69.3913 22.7111 69.8306 22.6481 69.8486 22.646L70.1063 22.6094V19.2892L69.7428 19.3705L69.7408 19.3685Z" fill="white"/>
<path id="Vector_5" d="M76.5593 18.7708H72.8405V22.5871H76.5593V18.7708Z" fill="#BCD35D"/>
<path id="Vector_6" d="M84.1707 0H80.5757V3.69235H84.1707V0Z" fill="#219EAB"/>
<path id="Vector_7" d="M80.6077 22.6239C80.6077 25.2284 78.958 25.7733 77.5739 25.7733C77.2004 25.7733 76.9368 25.7449 76.9348 25.7449L76.6033 25.7083V28.8943L76.8569 28.935C76.8749 28.937 77.2843 29.0001 77.9414 29.0001C79.8068 29.0001 84.1428 28.3962 84.1428 22.8109V6.22583H80.6077V22.6259V22.6239Z" fill="#219EAB"/>
<path id="Vector_8" d="M93.955 12.8704C92.3972 12.2421 91.0511 11.7013 91.0511 10.7029C91.0511 9.50536 92.2074 9.07838 93.2899 9.07838C95.5727 9.07838 96.8889 10.3776 96.9009 10.3898L97.1865 10.6806L98.6704 7.85438L98.5246 7.69579C98.4567 7.62056 96.805 5.85571 93.3199 5.85571C89.8347 5.85571 87.4241 7.77915 87.4241 10.644C87.4241 13.7833 90.2002 14.9239 92.4291 15.8389C94.0089 16.4875 95.373 17.0487 95.373 18.0836C95.373 19.1714 94.2306 19.7407 93.1042 19.7407C90.5797 19.7407 88.902 18.0144 88.8861 17.9961L88.6304 17.7257L86.8529 20.3832L87.0127 20.5621C87.1006 20.6597 89.2256 22.9633 93.1042 22.9633C96.5753 22.9633 99 20.9565 99 18.0815C99 14.9056 96.2019 13.7772 93.953 12.8704H93.955Z" fill="#219EAB"/>
</g>
</g>
</svg>
