<svg xmlns="http://www.w3.org/2000/svg" xmlns:xlink="http://www.w3.org/1999/xlink" width="1604.293" height="645.583" viewBox="0 0 1203.22 484.187"><g data-name="Warstwa 1"><path d="M0 484.187h1203.219V0H0z" fill="#230e32"/><symbol id="a"><path d="M0 0h.097v.231a.28.28 0 0 0 .006.066C.122.369.174.43.248.43.326.43.336.369.336.303V0h.097v.231c0 .026.002.049.007.07C.458.37.511.43.582.43c.076 0 .09-.056.09-.127V0h.097v.324c0 .129-.053.194-.167.194a.204.204 0 0 1-.18-.115H.42C.403.479.353.518.268.518A.198.198 0 0 1 .094.402H.092s.002.017.002.037v.067H0V0z"/></symbol><symbol id="b"><path d="M0 .265C0 .115.109 0 .268 0c.121 0 .196.072.196.072l-.04.071S.361.084.274.084C.184.084.105.14.1.251h.369l.003.042C.472.424.396.53.253.53.109.53 0 .426 0 .265m.103.059c.014.083.074.129.148.129C.316.453.37.411.373.324h-.27z"/></symbol><symbol id="c"><path d="M.066.189C.066.02.195 0 .26 0c.02 0 .034.002.034.002v.086S.285.086.271.086C.234.086.163.099.163.2v.225h.122v.078H.163v.146H.069V.503H0V.425h.066V.189z"/></symbol><use xlink:href="#a" transform="matrix(153.1119 0 0 -153.1119 358.164 291.087)" fill="#fff"/><use xlink:href="#b" transform="matrix(153.1119 0 0 -153.1119 492.75 292.925)" fill="#fff"/><use xlink:href="#b" transform="matrix(153.1119 0 0 -153.1119 577.727 292.925)" fill="#fff"/><use xlink:href="#c" transform="matrix(153.1119 0 0 -153.1119 661.173 291.7)" fill="#fff"/><symbol id="d"><path d="M0 0h.102v.103H0V0z"/></symbol><use xlink:href="#d" transform="matrix(153.1119 0 0 -153.1119 722.877 291.087)" fill="#b1d46a"/><symbol id="e"><path d="M.13.813h.098v.099H.13V.813M.131.712V.195C.131.096.059.084.022.084A.22.22 0 0 0 0 .085V.002S.013 0 .034 0c.063 0 .193.02.193.189v.523H.131z"/></symbol><symbol id="f"><path d="M0 .074S.068 0 .192 0c.111 0 .183.063.183.147 0 .166-.26.146-.26.237 0 .044.041.062.083.062.08 0 .125-.045.125-.045l.039.073S.31.53.199.53C.098.53.016.478.016.386c0-.165.26-.146.26-.239C.276.106.234.084.192.084.104.084.047.143.047.143L0 .074z"/></symbol><use xlink:href="#e" transform="matrix(153.1119 0 0 -153.1119 741.71 322.628)" fill="#24a1aa"/><use xlink:href="#f" transform="matrix(153.1119 0 0 -153.1119 793.461 292.925)" fill="#24a1aa"/></g></svg>